<mxfile host="app.diagrams.net" agent="Mozilla/5.0 (Windows NT 10.0; Win64; x64) AppleWebKit/537.36 (KHTML, like Gecko) Chrome/126.0.0.0 Safari/537.36" version="24.7.4">
  <diagram name="Page-1" id="d3F6mVEXvMRWerWBuXXY">
    <mxGraphModel dx="1050" dy="569" grid="1" gridSize="10" guides="1" tooltips="1" connect="1" arrows="1" fold="1" page="1" pageScale="1" pageWidth="850" pageHeight="1100" math="0" shadow="0">
      <root>
        <mxCell id="0" />
        <mxCell id="1" parent="0" />
        <mxCell id="epH0pL_-I7PvdftD8WGT-52" value="" style="rhombus;whiteSpace=wrap;html=1;" vertex="1" parent="1">
          <mxGeometry x="60" y="270" width="80" height="80" as="geometry" />
        </mxCell>
        <mxCell id="epH0pL_-I7PvdftD8WGT-1" value="" style="whiteSpace=wrap;html=1;aspect=fixed;" vertex="1" parent="1">
          <mxGeometry x="420" y="110" width="80" height="80" as="geometry" />
        </mxCell>
        <mxCell id="epH0pL_-I7PvdftD8WGT-2" value="User" style="text;html=1;align=center;verticalAlign=middle;whiteSpace=wrap;rounded=0;" vertex="1" parent="1">
          <mxGeometry x="430" y="135" width="60" height="30" as="geometry" />
        </mxCell>
        <mxCell id="epH0pL_-I7PvdftD8WGT-3" value="" style="endArrow=none;html=1;rounded=0;" edge="1" parent="1">
          <mxGeometry width="50" height="50" relative="1" as="geometry">
            <mxPoint x="460" y="110" as="sourcePoint" />
            <mxPoint x="510" y="60" as="targetPoint" />
            <Array as="points">
              <mxPoint x="490" y="80" />
            </Array>
          </mxGeometry>
        </mxCell>
        <mxCell id="epH0pL_-I7PvdftD8WGT-4" value="" style="endArrow=none;html=1;rounded=0;" edge="1" parent="1">
          <mxGeometry width="50" height="50" relative="1" as="geometry">
            <mxPoint x="459.5" y="50" as="sourcePoint" />
            <mxPoint x="459.5" y="110" as="targetPoint" />
          </mxGeometry>
        </mxCell>
        <mxCell id="epH0pL_-I7PvdftD8WGT-5" value="" style="endArrow=none;html=1;rounded=0;exitX=0.75;exitY=0;exitDx=0;exitDy=0;" edge="1" parent="1" source="epH0pL_-I7PvdftD8WGT-1">
          <mxGeometry width="50" height="50" relative="1" as="geometry">
            <mxPoint x="500" y="110" as="sourcePoint" />
            <mxPoint x="530" y="90" as="targetPoint" />
          </mxGeometry>
        </mxCell>
        <mxCell id="epH0pL_-I7PvdftD8WGT-6" value="" style="endArrow=none;html=1;rounded=0;entryX=0.5;entryY=0;entryDx=0;entryDy=0;" edge="1" parent="1" target="epH0pL_-I7PvdftD8WGT-1">
          <mxGeometry width="50" height="50" relative="1" as="geometry">
            <mxPoint x="420" y="60" as="sourcePoint" />
            <mxPoint x="410" y="30" as="targetPoint" />
          </mxGeometry>
        </mxCell>
        <mxCell id="epH0pL_-I7PvdftD8WGT-7" value="" style="endArrow=none;html=1;rounded=0;" edge="1" parent="1">
          <mxGeometry width="50" height="50" relative="1" as="geometry">
            <mxPoint x="390" y="90" as="sourcePoint" />
            <mxPoint x="450" y="110" as="targetPoint" />
          </mxGeometry>
        </mxCell>
        <mxCell id="epH0pL_-I7PvdftD8WGT-8" value="" style="ellipse;whiteSpace=wrap;html=1;" vertex="1" parent="1">
          <mxGeometry x="330" y="80" width="70" height="30" as="geometry" />
        </mxCell>
        <mxCell id="epH0pL_-I7PvdftD8WGT-9" value="" style="ellipse;whiteSpace=wrap;html=1;" vertex="1" parent="1">
          <mxGeometry x="355" y="40" width="70" height="30" as="geometry" />
        </mxCell>
        <mxCell id="epH0pL_-I7PvdftD8WGT-10" value="" style="ellipse;whiteSpace=wrap;html=1;" vertex="1" parent="1">
          <mxGeometry x="430" y="20" width="60" height="30" as="geometry" />
        </mxCell>
        <mxCell id="epH0pL_-I7PvdftD8WGT-11" value="" style="ellipse;whiteSpace=wrap;html=1;" vertex="1" parent="1">
          <mxGeometry x="500" y="40" width="70" height="30" as="geometry" />
        </mxCell>
        <mxCell id="epH0pL_-I7PvdftD8WGT-12" value="" style="ellipse;whiteSpace=wrap;html=1;" vertex="1" parent="1">
          <mxGeometry x="530" y="70" width="70" height="30" as="geometry" />
        </mxCell>
        <mxCell id="epH0pL_-I7PvdftD8WGT-13" value="" style="endArrow=none;html=1;rounded=0;" edge="1" parent="1">
          <mxGeometry width="50" height="50" relative="1" as="geometry">
            <mxPoint x="500" y="165" as="sourcePoint" />
            <mxPoint x="630" y="80" as="targetPoint" />
          </mxGeometry>
        </mxCell>
        <mxCell id="epH0pL_-I7PvdftD8WGT-14" value="" style="endArrow=none;html=1;rounded=0;exitX=1;exitY=0.75;exitDx=0;exitDy=0;" edge="1" parent="1" source="epH0pL_-I7PvdftD8WGT-1">
          <mxGeometry width="50" height="50" relative="1" as="geometry">
            <mxPoint x="510" y="160" as="sourcePoint" />
            <mxPoint x="630" y="120" as="targetPoint" />
          </mxGeometry>
        </mxCell>
        <mxCell id="epH0pL_-I7PvdftD8WGT-15" value="" style="endArrow=none;html=1;rounded=0;exitX=1;exitY=0.75;exitDx=0;exitDy=0;" edge="1" parent="1" source="epH0pL_-I7PvdftD8WGT-1">
          <mxGeometry width="50" height="50" relative="1" as="geometry">
            <mxPoint x="610" y="220" as="sourcePoint" />
            <mxPoint x="620" y="160" as="targetPoint" />
          </mxGeometry>
        </mxCell>
        <mxCell id="epH0pL_-I7PvdftD8WGT-16" value="" style="endArrow=none;html=1;rounded=0;exitX=1;exitY=0.75;exitDx=0;exitDy=0;" edge="1" parent="1" source="epH0pL_-I7PvdftD8WGT-1">
          <mxGeometry width="50" height="50" relative="1" as="geometry">
            <mxPoint x="610" y="220" as="sourcePoint" />
            <mxPoint x="580" y="190" as="targetPoint" />
          </mxGeometry>
        </mxCell>
        <mxCell id="epH0pL_-I7PvdftD8WGT-17" value="" style="ellipse;whiteSpace=wrap;html=1;" vertex="1" parent="1">
          <mxGeometry x="620" y="60" width="70" height="30" as="geometry" />
        </mxCell>
        <mxCell id="epH0pL_-I7PvdftD8WGT-18" value="" style="ellipse;whiteSpace=wrap;html=1;" vertex="1" parent="1">
          <mxGeometry x="620" y="105" width="70" height="30" as="geometry" />
        </mxCell>
        <mxCell id="epH0pL_-I7PvdftD8WGT-19" value="" style="ellipse;whiteSpace=wrap;html=1;" vertex="1" parent="1">
          <mxGeometry x="610" y="150" width="70" height="30" as="geometry" />
        </mxCell>
        <mxCell id="epH0pL_-I7PvdftD8WGT-20" value="" style="ellipse;whiteSpace=wrap;html=1;" vertex="1" parent="1">
          <mxGeometry x="560" y="190" width="70" height="30" as="geometry" />
        </mxCell>
        <mxCell id="epH0pL_-I7PvdftD8WGT-22" value="id" style="text;html=1;align=center;verticalAlign=middle;whiteSpace=wrap;rounded=0;" vertex="1" parent="1">
          <mxGeometry x="430" y="20" width="60" height="30" as="geometry" />
        </mxCell>
        <mxCell id="epH0pL_-I7PvdftD8WGT-23" value="name" style="text;html=1;align=center;verticalAlign=middle;whiteSpace=wrap;rounded=0;" vertex="1" parent="1">
          <mxGeometry x="355" y="40" width="60" height="30" as="geometry" />
        </mxCell>
        <mxCell id="epH0pL_-I7PvdftD8WGT-24" value="email" style="text;html=1;align=center;verticalAlign=middle;whiteSpace=wrap;rounded=0;" vertex="1" parent="1">
          <mxGeometry x="335" y="80" width="60" height="30" as="geometry" />
        </mxCell>
        <mxCell id="epH0pL_-I7PvdftD8WGT-25" value="gender" style="text;html=1;align=center;verticalAlign=middle;whiteSpace=wrap;rounded=0;" vertex="1" parent="1">
          <mxGeometry x="505" y="40" width="60" height="30" as="geometry" />
        </mxCell>
        <mxCell id="epH0pL_-I7PvdftD8WGT-26" value="contact no" style="text;html=1;align=center;verticalAlign=middle;whiteSpace=wrap;rounded=0;" vertex="1" parent="1">
          <mxGeometry x="535" y="70" width="60" height="30" as="geometry" />
        </mxCell>
        <mxCell id="epH0pL_-I7PvdftD8WGT-27" value="User_type" style="text;html=1;align=center;verticalAlign=middle;whiteSpace=wrap;rounded=0;" vertex="1" parent="1">
          <mxGeometry x="630" y="65" width="50" height="20" as="geometry" />
        </mxCell>
        <mxCell id="epH0pL_-I7PvdftD8WGT-28" value="username" style="text;html=1;align=center;verticalAlign=middle;whiteSpace=wrap;rounded=0;" vertex="1" parent="1">
          <mxGeometry x="625" y="105" width="60" height="30" as="geometry" />
        </mxCell>
        <mxCell id="epH0pL_-I7PvdftD8WGT-29" value="password" style="text;html=1;align=center;verticalAlign=middle;whiteSpace=wrap;rounded=0;" vertex="1" parent="1">
          <mxGeometry x="615" y="150" width="60" height="30" as="geometry" />
        </mxCell>
        <mxCell id="epH0pL_-I7PvdftD8WGT-30" value="E_no" style="text;html=1;align=center;verticalAlign=middle;whiteSpace=wrap;rounded=0;" vertex="1" parent="1">
          <mxGeometry x="560" y="190" width="60" height="30" as="geometry" />
        </mxCell>
        <mxCell id="epH0pL_-I7PvdftD8WGT-31" value="" style="rhombus;whiteSpace=wrap;html=1;" vertex="1" parent="1">
          <mxGeometry x="230" y="110" width="80" height="80" as="geometry" />
        </mxCell>
        <mxCell id="epH0pL_-I7PvdftD8WGT-33" value="" style="endArrow=none;html=1;rounded=0;exitX=0;exitY=0.5;exitDx=0;exitDy=0;entryX=1;entryY=0.5;entryDx=0;entryDy=0;" edge="1" parent="1" source="epH0pL_-I7PvdftD8WGT-1" target="epH0pL_-I7PvdftD8WGT-31">
          <mxGeometry width="50" height="50" relative="1" as="geometry">
            <mxPoint x="210" y="290" as="sourcePoint" />
            <mxPoint x="260" y="240" as="targetPoint" />
          </mxGeometry>
        </mxCell>
        <mxCell id="epH0pL_-I7PvdftD8WGT-34" value="has" style="text;html=1;align=center;verticalAlign=middle;whiteSpace=wrap;rounded=0;" vertex="1" parent="1">
          <mxGeometry x="240" y="135" width="60" height="30" as="geometry" />
        </mxCell>
        <mxCell id="epH0pL_-I7PvdftD8WGT-35" value="" style="whiteSpace=wrap;html=1;aspect=fixed;" vertex="1" parent="1">
          <mxGeometry x="60" y="110" width="80" height="80" as="geometry" />
        </mxCell>
        <mxCell id="epH0pL_-I7PvdftD8WGT-36" value="Event" style="text;html=1;align=center;verticalAlign=middle;whiteSpace=wrap;rounded=0;" vertex="1" parent="1">
          <mxGeometry x="70" y="130" width="60" height="30" as="geometry" />
        </mxCell>
        <mxCell id="epH0pL_-I7PvdftD8WGT-37" value="" style="endArrow=none;html=1;rounded=0;exitX=1;exitY=0.5;exitDx=0;exitDy=0;" edge="1" parent="1" source="epH0pL_-I7PvdftD8WGT-35" target="epH0pL_-I7PvdftD8WGT-31">
          <mxGeometry width="50" height="50" relative="1" as="geometry">
            <mxPoint x="210" y="290" as="sourcePoint" />
            <mxPoint x="260" y="240" as="targetPoint" />
          </mxGeometry>
        </mxCell>
        <mxCell id="epH0pL_-I7PvdftD8WGT-38" value="" style="endArrow=none;html=1;rounded=0;" edge="1" parent="1">
          <mxGeometry width="50" height="50" relative="1" as="geometry">
            <mxPoint x="100" y="110" as="sourcePoint" />
            <mxPoint x="190" y="80" as="targetPoint" />
            <Array as="points">
              <mxPoint x="140" y="95" />
            </Array>
          </mxGeometry>
        </mxCell>
        <mxCell id="epH0pL_-I7PvdftD8WGT-39" value="" style="endArrow=none;html=1;rounded=0;exitX=0.5;exitY=0;exitDx=0;exitDy=0;" edge="1" parent="1" source="epH0pL_-I7PvdftD8WGT-35">
          <mxGeometry width="50" height="50" relative="1" as="geometry">
            <mxPoint x="75" y="80" as="sourcePoint" />
            <mxPoint x="90" y="50" as="targetPoint" />
          </mxGeometry>
        </mxCell>
        <mxCell id="epH0pL_-I7PvdftD8WGT-40" value="" style="endArrow=none;html=1;rounded=0;" edge="1" parent="1">
          <mxGeometry width="50" height="50" relative="1" as="geometry">
            <mxPoint x="100" y="110" as="sourcePoint" />
            <mxPoint x="150" y="60" as="targetPoint" />
            <Array as="points">
              <mxPoint x="120" y="90" />
            </Array>
          </mxGeometry>
        </mxCell>
        <mxCell id="epH0pL_-I7PvdftD8WGT-41" value="" style="endArrow=none;html=1;rounded=0;" edge="1" parent="1">
          <mxGeometry width="50" height="50" relative="1" as="geometry">
            <mxPoint x="50" y="80" as="sourcePoint" />
            <mxPoint x="100" y="110" as="targetPoint" />
          </mxGeometry>
        </mxCell>
        <mxCell id="epH0pL_-I7PvdftD8WGT-42" value="" style="ellipse;whiteSpace=wrap;html=1;" vertex="1" parent="1">
          <mxGeometry x="180" y="60" width="80" height="40" as="geometry" />
        </mxCell>
        <mxCell id="epH0pL_-I7PvdftD8WGT-43" value="" style="ellipse;whiteSpace=wrap;html=1;" vertex="1" parent="1">
          <mxGeometry x="130" y="20" width="80" height="40" as="geometry" />
        </mxCell>
        <mxCell id="epH0pL_-I7PvdftD8WGT-44" value="" style="ellipse;whiteSpace=wrap;html=1;" vertex="1" parent="1">
          <mxGeometry x="40" y="15" width="80" height="40" as="geometry" />
        </mxCell>
        <mxCell id="epH0pL_-I7PvdftD8WGT-45" value="" style="ellipse;whiteSpace=wrap;html=1;" vertex="1" parent="1">
          <mxGeometry x="10" y="65" width="80" height="35" as="geometry" />
        </mxCell>
        <mxCell id="epH0pL_-I7PvdftD8WGT-47" value="E_manager" style="text;html=1;align=center;verticalAlign=middle;whiteSpace=wrap;rounded=0;" vertex="1" parent="1">
          <mxGeometry x="190" y="70" width="60" height="30" as="geometry" />
        </mxCell>
        <mxCell id="epH0pL_-I7PvdftD8WGT-48" value="id" style="text;html=1;align=center;verticalAlign=middle;whiteSpace=wrap;rounded=0;" vertex="1" parent="1">
          <mxGeometry x="140" y="25" width="60" height="30" as="geometry" />
        </mxCell>
        <mxCell id="epH0pL_-I7PvdftD8WGT-49" value="Event_type" style="text;html=1;align=center;verticalAlign=middle;whiteSpace=wrap;rounded=0;" vertex="1" parent="1">
          <mxGeometry x="50" y="20" width="60" height="30" as="geometry" />
        </mxCell>
        <mxCell id="epH0pL_-I7PvdftD8WGT-50" value="Organised by" style="text;html=1;align=center;verticalAlign=middle;whiteSpace=wrap;rounded=0;" vertex="1" parent="1">
          <mxGeometry x="70" y="295" width="60" height="30" as="geometry" />
        </mxCell>
        <mxCell id="epH0pL_-I7PvdftD8WGT-51" value="Amount" style="text;html=1;align=center;verticalAlign=middle;whiteSpace=wrap;rounded=0;" vertex="1" parent="1">
          <mxGeometry x="20" y="70" width="60" height="30" as="geometry" />
        </mxCell>
        <mxCell id="epH0pL_-I7PvdftD8WGT-53" value="" style="whiteSpace=wrap;html=1;aspect=fixed;" vertex="1" parent="1">
          <mxGeometry x="60" y="430" width="80" height="80" as="geometry" />
        </mxCell>
        <mxCell id="epH0pL_-I7PvdftD8WGT-54" value="" style="ellipse;whiteSpace=wrap;html=1;" vertex="1" parent="1">
          <mxGeometry x="200" y="510" width="100" height="50" as="geometry" />
        </mxCell>
        <mxCell id="epH0pL_-I7PvdftD8WGT-55" value="" style="endArrow=none;html=1;rounded=0;exitX=0.5;exitY=0;exitDx=0;exitDy=0;entryX=0.5;entryY=1;entryDx=0;entryDy=0;" edge="1" parent="1" source="epH0pL_-I7PvdftD8WGT-52" target="epH0pL_-I7PvdftD8WGT-35">
          <mxGeometry width="50" height="50" relative="1" as="geometry">
            <mxPoint x="70" y="250" as="sourcePoint" />
            <mxPoint x="120" y="200" as="targetPoint" />
          </mxGeometry>
        </mxCell>
        <mxCell id="epH0pL_-I7PvdftD8WGT-56" value="" style="endArrow=none;html=1;rounded=0;exitX=0.5;exitY=0;exitDx=0;exitDy=0;entryX=0.5;entryY=1;entryDx=0;entryDy=0;" edge="1" parent="1">
          <mxGeometry width="50" height="50" relative="1" as="geometry">
            <mxPoint x="99.5" y="430" as="sourcePoint" />
            <mxPoint x="99.5" y="350" as="targetPoint" />
          </mxGeometry>
        </mxCell>
        <mxCell id="epH0pL_-I7PvdftD8WGT-57" value="" style="endArrow=none;html=1;rounded=0;entryX=0.424;entryY=-0.016;entryDx=0;entryDy=0;entryPerimeter=0;exitX=1;exitY=0.25;exitDx=0;exitDy=0;" edge="1" parent="1" source="epH0pL_-I7PvdftD8WGT-53" target="epH0pL_-I7PvdftD8WGT-54">
          <mxGeometry width="50" height="50" relative="1" as="geometry">
            <mxPoint x="140" y="485" as="sourcePoint" />
            <mxPoint x="230" y="455" as="targetPoint" />
            <Array as="points">
              <mxPoint x="180" y="475" />
            </Array>
          </mxGeometry>
        </mxCell>
        <mxCell id="epH0pL_-I7PvdftD8WGT-58" value="Event&lt;div&gt;Management System&lt;/div&gt;" style="text;html=1;align=center;verticalAlign=middle;whiteSpace=wrap;rounded=0;" vertex="1" parent="1">
          <mxGeometry x="70" y="455" width="60" height="30" as="geometry" />
        </mxCell>
        <mxCell id="epH0pL_-I7PvdftD8WGT-59" value="Dream Maker" style="text;html=1;align=center;verticalAlign=middle;whiteSpace=wrap;rounded=0;" vertex="1" parent="1">
          <mxGeometry x="220" y="520" width="60" height="30" as="geometry" />
        </mxCell>
        <mxCell id="epH0pL_-I7PvdftD8WGT-64" value="" style="rhombus;whiteSpace=wrap;html=1;" vertex="1" parent="1">
          <mxGeometry x="210" y="240" width="80" height="80" as="geometry" />
        </mxCell>
        <mxCell id="epH0pL_-I7PvdftD8WGT-65" value="" style="endArrow=none;html=1;rounded=0;exitX=1;exitY=1;exitDx=0;exitDy=0;entryX=0;entryY=0.5;entryDx=0;entryDy=0;" edge="1" parent="1" source="epH0pL_-I7PvdftD8WGT-35" target="epH0pL_-I7PvdftD8WGT-64">
          <mxGeometry width="50" height="50" relative="1" as="geometry">
            <mxPoint x="150" y="240" as="sourcePoint" />
            <mxPoint x="200" y="280" as="targetPoint" />
          </mxGeometry>
        </mxCell>
        <mxCell id="epH0pL_-I7PvdftD8WGT-66" value="" style="endArrow=none;html=1;rounded=0;entryX=1;entryY=0.5;entryDx=0;entryDy=0;" edge="1" parent="1" target="epH0pL_-I7PvdftD8WGT-64">
          <mxGeometry width="50" height="50" relative="1" as="geometry">
            <mxPoint x="350" y="360" as="sourcePoint" />
            <mxPoint x="300" y="290" as="targetPoint" />
          </mxGeometry>
        </mxCell>
        <mxCell id="epH0pL_-I7PvdftD8WGT-68" value="" style="whiteSpace=wrap;html=1;aspect=fixed;" vertex="1" parent="1">
          <mxGeometry x="315" y="360" width="80" height="80" as="geometry" />
        </mxCell>
        <mxCell id="epH0pL_-I7PvdftD8WGT-69" value="consists of" style="text;html=1;align=center;verticalAlign=middle;whiteSpace=wrap;rounded=0;" vertex="1" parent="1">
          <mxGeometry x="220" y="265" width="60" height="30" as="geometry" />
        </mxCell>
        <mxCell id="epH0pL_-I7PvdftD8WGT-70" value="Venue" style="text;html=1;align=center;verticalAlign=middle;whiteSpace=wrap;rounded=0;" vertex="1" parent="1">
          <mxGeometry x="325" y="385" width="60" height="30" as="geometry" />
        </mxCell>
        <mxCell id="epH0pL_-I7PvdftD8WGT-71" value="" style="endArrow=none;html=1;rounded=0;" edge="1" parent="1">
          <mxGeometry width="50" height="50" relative="1" as="geometry">
            <mxPoint x="370" y="360" as="sourcePoint" />
            <mxPoint x="420" y="310" as="targetPoint" />
          </mxGeometry>
        </mxCell>
        <mxCell id="epH0pL_-I7PvdftD8WGT-72" value="" style="endArrow=none;html=1;rounded=0;" edge="1" parent="1" target="epH0pL_-I7PvdftD8WGT-73">
          <mxGeometry width="50" height="50" relative="1" as="geometry">
            <mxPoint x="400" y="370" as="sourcePoint" />
            <mxPoint x="490" y="340" as="targetPoint" />
            <Array as="points" />
          </mxGeometry>
        </mxCell>
        <mxCell id="epH0pL_-I7PvdftD8WGT-73" value="" style="ellipse;whiteSpace=wrap;html=1;" vertex="1" parent="1">
          <mxGeometry x="440" y="300" width="110" height="50" as="geometry" />
        </mxCell>
        <mxCell id="epH0pL_-I7PvdftD8WGT-74" value="" style="ellipse;whiteSpace=wrap;html=1;" vertex="1" parent="1">
          <mxGeometry x="370" y="265" width="90" height="50" as="geometry" />
        </mxCell>
        <mxCell id="epH0pL_-I7PvdftD8WGT-75" value="date" style="text;html=1;align=center;verticalAlign=middle;whiteSpace=wrap;rounded=0;" vertex="1" parent="1">
          <mxGeometry x="385" y="270" width="60" height="30" as="geometry" />
        </mxCell>
        <mxCell id="epH0pL_-I7PvdftD8WGT-76" value="Timing" style="text;html=1;align=center;verticalAlign=middle;whiteSpace=wrap;rounded=0;" vertex="1" parent="1">
          <mxGeometry x="460" y="310" width="60" height="30" as="geometry" />
        </mxCell>
        <mxCell id="epH0pL_-I7PvdftD8WGT-77" value="" style="endArrow=none;html=1;rounded=0;exitX=1;exitY=0.5;exitDx=0;exitDy=0;" edge="1" parent="1" source="epH0pL_-I7PvdftD8WGT-68" target="epH0pL_-I7PvdftD8WGT-78">
          <mxGeometry width="50" height="50" relative="1" as="geometry">
            <mxPoint x="440" y="390" as="sourcePoint" />
            <mxPoint x="490" y="410" as="targetPoint" />
          </mxGeometry>
        </mxCell>
        <mxCell id="epH0pL_-I7PvdftD8WGT-78" value="" style="rhombus;whiteSpace=wrap;html=1;" vertex="1" parent="1">
          <mxGeometry x="450" y="370" width="80" height="80" as="geometry" />
        </mxCell>
        <mxCell id="epH0pL_-I7PvdftD8WGT-79" value="Consists of" style="text;html=1;align=center;verticalAlign=middle;whiteSpace=wrap;rounded=0;" vertex="1" parent="1">
          <mxGeometry x="460" y="395" width="60" height="30" as="geometry" />
        </mxCell>
        <mxCell id="epH0pL_-I7PvdftD8WGT-80" value="" style="endArrow=none;html=1;rounded=0;exitX=1;exitY=0.5;exitDx=0;exitDy=0;" edge="1" parent="1" source="epH0pL_-I7PvdftD8WGT-78">
          <mxGeometry width="50" height="50" relative="1" as="geometry">
            <mxPoint x="530" y="420" as="sourcePoint" />
            <mxPoint x="600" y="410" as="targetPoint" />
          </mxGeometry>
        </mxCell>
        <mxCell id="epH0pL_-I7PvdftD8WGT-81" value="" style="whiteSpace=wrap;html=1;aspect=fixed;" vertex="1" parent="1">
          <mxGeometry x="595" y="375" width="80" height="80" as="geometry" />
        </mxCell>
        <mxCell id="epH0pL_-I7PvdftD8WGT-82" value="Payment" style="text;html=1;align=center;verticalAlign=middle;whiteSpace=wrap;rounded=0;" vertex="1" parent="1">
          <mxGeometry x="605" y="395" width="60" height="30" as="geometry" />
        </mxCell>
        <mxCell id="epH0pL_-I7PvdftD8WGT-83" value="" style="ellipse;whiteSpace=wrap;html=1;" vertex="1" parent="1">
          <mxGeometry x="590" y="285" width="90" height="50" as="geometry" />
        </mxCell>
        <mxCell id="epH0pL_-I7PvdftD8WGT-84" value="" style="ellipse;whiteSpace=wrap;html=1;" vertex="1" parent="1">
          <mxGeometry x="700" y="315" width="90" height="50" as="geometry" />
        </mxCell>
        <mxCell id="epH0pL_-I7PvdftD8WGT-85" value="" style="ellipse;whiteSpace=wrap;html=1;" vertex="1" parent="1">
          <mxGeometry x="720" y="385" width="90" height="50" as="geometry" />
        </mxCell>
        <mxCell id="epH0pL_-I7PvdftD8WGT-86" value="" style="endArrow=none;html=1;rounded=0;exitX=0.5;exitY=0;exitDx=0;exitDy=0;entryX=0.5;entryY=1;entryDx=0;entryDy=0;" edge="1" parent="1" source="epH0pL_-I7PvdftD8WGT-81" target="epH0pL_-I7PvdftD8WGT-83">
          <mxGeometry width="50" height="50" relative="1" as="geometry">
            <mxPoint x="570" y="390" as="sourcePoint" />
            <mxPoint x="620" y="340" as="targetPoint" />
          </mxGeometry>
        </mxCell>
        <mxCell id="epH0pL_-I7PvdftD8WGT-87" value="" style="endArrow=none;html=1;rounded=0;" edge="1" parent="1">
          <mxGeometry width="50" height="50" relative="1" as="geometry">
            <mxPoint x="675" y="410" as="sourcePoint" />
            <mxPoint x="725" y="360" as="targetPoint" />
          </mxGeometry>
        </mxCell>
        <mxCell id="epH0pL_-I7PvdftD8WGT-88" value="" style="endArrow=none;html=1;rounded=0;" edge="1" parent="1">
          <mxGeometry width="50" height="50" relative="1" as="geometry">
            <mxPoint x="675" y="412.5" as="sourcePoint" />
            <mxPoint x="720" y="407.5" as="targetPoint" />
            <Array as="points" />
          </mxGeometry>
        </mxCell>
        <mxCell id="epH0pL_-I7PvdftD8WGT-89" value="payment mode" style="text;html=1;align=center;verticalAlign=middle;whiteSpace=wrap;rounded=0;" vertex="1" parent="1">
          <mxGeometry x="605" y="290" width="60" height="30" as="geometry" />
        </mxCell>
        <mxCell id="epH0pL_-I7PvdftD8WGT-90" value="user_id" style="text;html=1;align=center;verticalAlign=middle;whiteSpace=wrap;rounded=0;" vertex="1" parent="1">
          <mxGeometry x="730" y="395" width="60" height="30" as="geometry" />
        </mxCell>
        <mxCell id="epH0pL_-I7PvdftD8WGT-91" value="Event_id" style="text;html=1;align=center;verticalAlign=middle;whiteSpace=wrap;rounded=0;" vertex="1" parent="1">
          <mxGeometry x="715" y="325" width="60" height="30" as="geometry" />
        </mxCell>
      </root>
    </mxGraphModel>
  </diagram>
</mxfile>
